<?xml version="1.0" encoding="UTF-8" standalone="no"?>
<!-- Generator: Adobe Illustrator 25.2.3, SVG Export Plug-In . SVG Version: 6.00 Build 0)  -->

<svg
   version="1.1"
   id="Layer_1"
   x="0px"
   y="0px"
   viewBox="0 0 128 128"
   style="enable-background:new 0 0 128 128;"
   xml:space="preserve"
   sodipodi:docname="bombs_powerup.svg"
   inkscape:version="1.4 (e7c3feb100, 2024-10-09)"
   xmlns:inkscape="http://www.inkscape.org/namespaces/inkscape"
   xmlns:sodipodi="http://sodipodi.sourceforge.net/DTD/sodipodi-0.dtd"
   xmlns="http://www.w3.org/2000/svg"
   xmlns:svg="http://www.w3.org/2000/svg"><defs
   id="defs12" /><sodipodi:namedview
   id="namedview12"
   pagecolor="#ffffff"
   bordercolor="#000000"
   borderopacity="0.25"
   inkscape:showpageshadow="2"
   inkscape:pageopacity="0.0"
   inkscape:pagecheckerboard="0"
   inkscape:deskcolor="#d1d1d1"
   inkscape:zoom="6.5"
   inkscape:cx="63.923077"
   inkscape:cy="63.923077"
   inkscape:window-width="1489"
   inkscape:window-height="1140"
   inkscape:window-x="26"
   inkscape:window-y="23"
   inkscape:window-maximized="0"
   inkscape:current-layer="Layer_1" />
<g
   id="g12">
	<g
   id="g1">
		<polygon
   style="fill:#FFE36C;"
   points="81.13,29.99 62.79,30.17 78.47,21.62 74.76,8.38 85.17,16.28 95.64,8.27 92.89,19.05     110.15,21.03 92.19,28.03 85.03,40.53   "
   id="polygon1" />
		<path
   style="fill:#FF8F00;"
   d="M92.27,13.37l-0.76,2.96l-1.13,4.45l4.56,0.52l6.94,0.79l-9.76,3.81l-1.32,0.51l-0.7,1.23    l-4.68,8.17l-1.92-5.2l-0.98-2.65L79.7,28l-8.91,0.09l7.24-3.95l2.8-1.53l-0.86-3.07l-1.67-5.96l4.44,3.37l2.43,1.84l2.42-1.85    L92.27,13.37 M85.16,13.76L72.49,4.15c-0.41-0.31-0.98,0.08-0.84,0.57l4.46,15.91l-19.44,10.6c-0.49,0.27-0.3,1.01,0.26,1    l22.81-0.23l4.5,12.17c0.16,0.43,0.74,0.47,0.97,0.08l8.37-14.62l22.82-8.9c0.52-0.2,0.42-0.97-0.13-1.03L95.4,17.32l3.22-12.65    c0.13-0.49-0.44-0.87-0.84-0.56L85.16,13.76z"
   id="path1" />
	</g>
	<path
   style="fill:#4D4D4D;"
   d="M94.59,44.29c-1.27-0.18-7.6,6.13-12.17,2.17c0,0-0.01,0.01-0.01,0.01   c-2.63-2.13-5.53-3.99-8.72-5.51c-21.75-10.37-47.8-1.15-58.18,20.61c-10.37,21.75-1.15,47.8,20.61,58.18   c21.75,10.37,47.8,1.15,58.18-20.61c3.37-7.06,4.67-14.57,4.14-21.85c-0.04-0.51-0.13-1.64,0.12-2.48c1.71-5.74,7.93-8.6,7.8-8.87   C106.23,65.66,95.87,44.47,94.59,44.29z"
   id="path2" />
	
		<ellipse
   transform="matrix(0.8667 -0.4988 0.4988 0.8667 -14.1049 57.4504)"
   style="fill:#757575;"
   cx="100.46"
   cy="55.12"
   rx="5.83"
   ry="12.33"
   id="ellipse2" />
	
		<ellipse
   transform="matrix(0.866 -0.5 0.5 0.866 -13.8369 58.5564)"
   style="fill:#212121;"
   cx="102.35"
   cy="55.1"
   rx="2.29"
   ry="3.52"
   id="ellipse3" />
	<path
   style="opacity:0.9;fill:#757575;"
   d="M53.9,52.57c2.74,7.78-1.27,12.42-6.46,15.39c-2.48,1.42-5.36,2.04-7.87,3.41   c-4.88,2.66-7.84,7.79-12.09,11.36c-1.06,0.89-2.27,1.71-3.65,1.86c-1.84,0.2-3.64-0.88-4.74-2.37C18,80.72,13.53,66.5,29.85,51.95   C37.14,45.45,50.9,44.04,53.9,52.57z"
   id="path3" />
	<linearGradient
   id="SVGID_1_"
   gradientUnits="userSpaceOnUse"
   x1="42.079"
   y1="34.5524"
   x2="83.8122"
   y2="48.0625">
		<stop
   offset="0"
   style="stop-color:#FFF9C4;stop-opacity:0.1"
   id="stop3" />
		<stop
   offset="1.516624e-03"
   style="stop-color:#FFF9C4;stop-opacity:0.1007"
   id="stop4" />
		<stop
   offset="0.3781"
   style="stop-color:#FFFCA6;stop-opacity:0.2626"
   id="stop5" />
		<stop
   offset="0.7007"
   style="stop-color:#FFFE94;stop-opacity:0.4014"
   id="stop6" />
		<stop
   offset="0.93"
   style="stop-color:#FFFF8D;stop-opacity:0.5"
   id="stop7" />
	</linearGradient>
	<path
   style="fill:url(#SVGID_1_);"
   d="M41.86,38.72c3.69,0.12,11.23,0.17,20.77,3.92c3.21,1.26,5.92,3.02,8.83,4.82   c2.35,1.45,5.02,2.66,7.77,2.4c0.97-0.09,2.04-0.47,2.42-1.37c0.23-0.56,0.21-1.13,0.01-1.69c-0.24-0.66-1.06-1.58-2.32-2.61   c-1.77-1.19-3.65-2.28-5.64-3.23C63.34,36.02,52.01,35.53,41.86,38.72z"
   id="path7" />
	<linearGradient
   id="SVGID_2_"
   gradientUnits="userSpaceOnUse"
   x1="102.0288"
   y1="57.3021"
   x2="91.1394"
   y2="42.9353">
		<stop
   offset="0.1096"
   style="stop-color:#FFF9C4;stop-opacity:0"
   id="stop8" />
		<stop
   offset="1"
   style="stop-color:#FFFF8D"
   id="stop9" />
	</linearGradient>
	<path
   style="fill:url(#SVGID_2_);"
   d="M102.13,47.64c-0.05-0.05-0.1-0.11-0.15-0.16c-0.01-0.01-0.01-0.02-0.02-0.02   c-0.23-0.23-0.46-0.45-0.69-0.67c-0.03-0.03-0.07-0.06-0.1-0.1c-2.53-2.29-5.12-3.26-6.86-2.27c-2.79,1.6-2.3,7.69,1.1,13.59   c0.73,1.26,1.53,2.41,2.37,3.43c-0.1-0.29-3.84-11.52-1.51-14.53C98.26,44.37,101.78,47.34,102.13,47.64z"
   id="path9" />
	<path
   style="fill:#212121;"
   d="M88.16,74.53c-2.42-1.59-4.79-3.75-6.26-9.18c-0.19-0.69-0.83-4.12,1.02-4.67   c1.6-0.48,2.79,2.15,4.17,4.46c1.5,2.53,3.93,4.72,6.54,6.15c0.76,0.41,4.29,2,1.97,4.22C94.07,76.96,89.58,75.47,88.16,74.53z"
   id="path10" />
	<g
   id="g11">
		<path
   style="fill:#C69461;"
   d="M100.85,53.44c0.1-0.04,10.25-4.65,9.37-11.34c-0.58-4.42-2.3-6.62-11.4-8.78    c-8.9-2.11-13.25-6.24-13.43-6.42c-0.89-0.86-0.92-2.29-0.05-3.19c0.86-0.89,2.28-0.92,3.18-0.06c0.07,0.06,3.77,3.48,11.35,5.28    c8.82,2.09,13.79,4.72,14.83,12.57c1.16,8.78-8.52,14.25-11.29,15.7C101.69,58.11,99.71,53.94,100.85,53.44z"
   id="path11" />
	</g>
	<path
   style="fill:#F6BC41;"
   d="M88.5,23.66c-0.89-0.86-2.32-0.83-3.18,0.06c-0.86,0.9-0.84,2.32,0.05,3.19   c0.13,0.13,2.5,2.37,7.25,4.39l0.95-1.66l3.66-1.43C91.42,26.35,88.56,23.71,88.5,23.66z"
   id="path12" />
</g>
<path
   style="fill:#b6bcbe;fill-opacity:1;stroke-width:0.393898"
   d="m 40.179669,95.134539 c 0,0 0.0079,1.481059 0.01969,1.75285 0.01969,0.527824 0.31118,0.768103 0.886272,0.756286 0.575092,-0.01576 16.575258,0.169376 16.575258,0.169376 l 0.259973,-5.022209 z"
   id="path1-6" /><path
   style="fill:#b6bcbe;fill-opacity:1;stroke-width:0.393898"
   d="m 67.988919,94.453095 1.004442,3.233908 c 0,0 16.173483,0 16.76827,0.03152 0.594787,0.03151 0.909906,-0.189072 0.941418,-0.752346 0.03151,-0.567215 0.08666,-2.843949 0.08666,-2.843949 L 75.461178,92.570259 Z"
   id="path2-7" /><path
   style="fill:#b6bcbe;fill-opacity:1;stroke-width:0.393898"
   d="m 56.963693,111.70586 c 0,0 -0.01181,2.16644 -0.01576,2.60761 -0.0079,0.83112 0.204827,1.52438 1.871018,1.52438 1.666192,0 8.417616,-0.0316 9.106939,-0.063 0.689323,-0.0316 1.236842,-0.40572 1.268353,-1.18957 0.03152,-0.78386 0.208768,-3.76962 -0.106354,-3.7381 -0.315119,0.0316 -7.318639,0.0316 -7.318639,0.0316 z"
   id="path3-5" /><path
   style="fill:#cccccc;fill-opacity:1;stroke-width:0.393898"
   d="m 41.392877,85.909431 c -0.941418,0.03545 -1.193513,0.378143 -1.225026,1.414097 -0.03152,1.035953 0,6.814447 0,7.35015 0,0.535703 0.03152,1.319561 0.720836,1.351073 0.689322,0.03151 16.078946,0.03151 16.078946,0.03151 0,0 0,14.790889 0,15.637779 0,0.84688 0.626298,1.91435 2.324002,2.04039 1.697703,0.12605 6.625377,0.063 7.787378,0.063 1.162001,0 2.103419,-0.44117 2.166443,-1.44561 0.06302,-1.00445 0.06302,-16.299529 0.06302,-16.299529 0,0 15.354175,-0.0906 16.110461,-0.09454 1.067465,-0.0039 1.351072,-0.594787 1.382583,-2.040394 0.03151,-1.445609 -0.06302,-5.936054 -0.06302,-6.719913 0,-0.783858 -0.504191,-1.256537 -1.697703,-1.193513 -1.193513,0.06302 -15.889877,-0.06302 -15.889877,-0.06302 0,0 0,-15.75595 0,-16.508296 0,-0.752346 -0.291484,-1.181696 -1.571656,-1.169879 -0.878394,0.0079 -8.646077,-0.01576 -9.307827,-0.03152 -0.835065,-0.01969 -1.217147,0.563276 -1.209268,1.504694 0.0079,0.909905 -0.06302,16.236505 -0.06302,16.236505 0,0 -14.759386,-0.09454 -15.606268,-0.06302 z"
   id="path4" /><path
   style="fill:#d8d8d8;fill-opacity:1;stroke-width:0.393898"
   d="m 42.113712,87.70167 c -0.626299,0.689324 -0.752347,4.774053 0.378143,4.774053 1.264414,0 0.846881,-1.977371 2.576097,-2.639122 1.729215,-0.661749 2.536708,-1.004442 2.576098,-1.725276 0.05908,-1.16594 -4.837077,-1.173818 -5.530338,-0.409655 z"
   id="path5" /><path
   style="fill:#d8d8d8;fill-opacity:1;stroke-width:0.393898"
   d="m 64.09326,70.322859 c 0.05121,0.831126 -2.087663,1.185634 -2.926668,1.989187 -0.842943,0.803555 -1.378645,2.087665 -2.008882,2.067969 -0.630239,-0.01969 -1.071406,-1.20533 -0.917785,-2.544586 0.15362,-1.339256 1.28411,-2.142809 2.966058,-2.257039 1.681947,-0.114231 2.847888,0.11423 2.887277,0.744469 z"
   id="path6" /></svg>
