<?xml version="1.0" encoding="UTF-8" standalone="no"?>
<!-- Generator: Adobe Illustrator 24.1.2, SVG Export Plug-In . SVG Version: 6.00 Build 0)  -->

<svg
   version="1.1"
   id="Layer_3"
   x="0px"
   y="0px"
   viewBox="0 0 128 128"
   style="enable-background:new 0 0 128 128;"
   xml:space="preserve"
   sodipodi:docname="emoji_u1f4a8.svg"
   inkscape:version="1.4 (e7c3feb100, 2024-10-09)"
   xmlns:inkscape="http://www.inkscape.org/namespaces/inkscape"
   xmlns:sodipodi="http://sodipodi.sourceforge.net/DTD/sodipodi-0.dtd"
   xmlns="http://www.w3.org/2000/svg"
   xmlns:svg="http://www.w3.org/2000/svg"><defs
   id="defs11" /><sodipodi:namedview
   id="namedview11"
   pagecolor="#ffffff"
   bordercolor="#000000"
   borderopacity="0.25"
   inkscape:showpageshadow="2"
   inkscape:pageopacity="0.0"
   inkscape:pagecheckerboard="0"
   inkscape:deskcolor="#d1d1d1"
   inkscape:zoom="6.5"
   inkscape:cx="64"
   inkscape:cy="64"
   inkscape:window-width="2560"
   inkscape:window-height="1371"
   inkscape:window-x="26"
   inkscape:window-y="23"
   inkscape:window-maximized="0"
   inkscape:current-layer="Layer_3" />
<g
   id="g11">
	<path
   style="fill:#92CBEB;"
   d="M58.34,54.22c0-1.38-0.23-2.12-4.31-2.77c-3.13-0.5-42.38,1.42-44.74,1.57   c-4.56,0.3-6.33,2.15-6.29,5.51c0.03,2.93,3.39,5.44,4.19,6.65c0.8,1.21,0.74,2.34-0.25,3.61c-0.76,0.98-3.98,2.32-3.98,6.01   c0,4.53,2.96,6.81,6.33,7.11c5.3,0.46,29.57,0.88,35.81,1.32c3.01,0.21,4.85,1.55,7.86,1.77c1.38,0,5.38-3.33,5.38-4.71   C58.34,78.92,58.34,55.6,58.34,54.22z"
   id="path1" />
	<path
   style="fill:#D5EBF5;"
   d="M123.05,62.41c0-29.26-17.72-30.7-17.72-30.7c0.01-0.28,0.93-17.3-16-20.97   c-13.78-2.99-22.57,2.55-26.97,7.53c-8.25-4.31-20.1-3.01-25.55,6.03c-2.87,4.77-2.51,12.09-0.62,17.32   c1.9,5.27,5.67,8.53,9.4,12.7c10.75,12.04,6.93,16.63,1.37,24.09c-3.44,4.61-11.04,18.41,0.64,31.19   c8.22,8.99,26.28,3.96,26.28,3.96c1.33,0.4,13.18,9.59,26.35,0.87c14.06-9.31,8.57-26.77,8.57-26.77S123.05,80.59,123.05,62.41z"
   id="path2" />
	<path
   style="fill:#92CBEB;"
   d="M70.17,86.73c0.79-0.23,0.83-1.33,0.04-1.59c-3.5-1.14-9.82-3.82-13.56-9.16   c-3.63-5.18-5.82-17.51,1.69-23.07c11.04-8.19,9.27-17.49,6.49-20.94c-2.9-3.6-10.66-2.9-10.54,3.39c0.02,1.16,0.36,2.3,0.85,3.35   c1.28,2.76,3.27,6.9,0.5,9.61c-1.32,1.29-3.25,1.68-5.06,1.33c-4.28-0.83-7.53-4.17-9.24-8.05c-4.94-11.23-0.75-18,5.14-23.86   c0.31-0.31-0.01-0.84-0.43-0.7c-7.37,2.41-11.01,8.42-11.3,15.14c-0.21,4.94,0.78,9.9,3.4,14.09c2.02,3.23,5.42,6.01,7.68,9.07   c1.76,2.38,5.31,5.32,4.75,8.59c-0.54,3.16-2.93,5.95-4.83,8.37c-5.41,6.89-8.2,16.21-5.98,24.68   c4.11,15.68,16.32,17.62,20.36,17.83c0.32,0.02,0.43-0.44,0.14-0.55c-4.12-1.56-6.55-3.17-7.52-3.96   c-7.62-6.25-9.41-17.08-5.84-26.29c0.26-0.68,0.68-1.3,1.26-1.75c2.5-1.94,4.35,1.77,8.56,3.86C61.6,88.53,67.06,87.62,70.17,86.73   z"
   id="path3" />
	<path
   style="fill:#92CBEB;"
   d="M103.55,35.62c3.05-2.98,1.49-13.48-2.97-18.37c-1.26-1.38-3.56-0.32-3.39,1.54   c0.27,3.12,0.8,7.67-1.02,12.36c-1.05,2.71-0.11,5.04,1.63,5.84C98.65,37.38,101.06,38.06,103.55,35.62z"
   id="path4" />
	<path
   style="fill:#61BFE8;"
   d="M122.24,68.5c0.43-1.87,0.67-3.62,0.78-5.21c0.05-0.76-1.01-0.97-1.24-0.25   c-1.3,4.16-4.13,9.6-10.27,12.86c-2.01,1.07-4.23,1.71-6.27,2.72c-2.63,1.31-6.19,2.57-6.13,6.08c0.09,4.83,7.74,5.22,13.52,0.48   C117.82,80.91,120.89,74.36,122.24,68.5z"
   id="path5" />
	<path
   style="fill:#61BFE8;"
   d="M102.56,112.77c0.56-0.44,0.08-1.3-0.59-1.07c-6.25,2.1-13.41,1.51-19.17-1.74   c-1.25-0.71-4.38-2.99-7.65-3.24c-2.07-0.16-3.92,1.45-3.78,3.52c0.09,1.4,0.91,2.68,1.95,3.62c2.8,2.53,7.02,3.6,10.68,4.03   c4.57,0.54,9.43-0.21,13.71-2.15C99.68,114.85,101.31,113.76,102.56,112.77z"
   id="path6" />
	<path
   style="fill:#92CBEB;"
   d="M18.64,43.28c3.67-1.49,7.08-3.9,9.08-7.32c2-3.41,2.38-7.92,0.34-11.31s-6.72-5.15-10.26-3.38   c-2.63,1.32-3.35,3.83-2.05,6.8c1.06,2.42,2.91,2.84,2.55,5.99c-0.46,4.06-5.48,7.54-7.86,8.54c-2.02,0.84-5.54,3.39-1.15,3.08   C12.38,45.48,15.78,44.44,18.64,43.28z"
   id="path7" />
	<path
   style="fill:#61BFE8;"
   d="M29.42,100.96c1,2.53,2.42,9.07-3.44,9.89c-4.7,0.66-7.42-4.48-8.48-9.01   c-1.42-6.06-6.66-9.21-9.06-11.47c-0.49-0.46-0.2-1.28,0.48-1.33C13.26,88.71,24.7,89.06,29.42,100.96z"
   id="path8" />
	<path
   style="fill:#92CBEB;"
   d="M70.49,15.43c-1.32,1.07-2.63,2.54-3.81,3.76c-0.42,0.43-2.42,3.07-4.35,1.4   c-0.93-0.81-0.03-2.78,0.27-3.33c1.16-2.12,4.73-5.98,12.17-7.56c2.46-0.52,9.58-0.41,9.58,0.3   C84.35,10.96,76.06,10.88,70.49,15.43z"
   id="path9" />
	<path
   style="fill:#039BE5;"
   d="M34.66,60.25H3.37c0.47,1.12,1.29,2.14,2.07,3h29.22c0.83,0,1.5-0.67,1.5-1.5   S35.49,60.25,34.66,60.25z"
   id="path10" />
	<path
   style="fill:#039BE5;"
   d="M43.42,69.11H6.63c-1,0.89-3,1.71-3.46,4.17h40.25c1.38,0,2.5-1.13,2.5-2.51   C45.92,69.39,44.8,69.11,43.42,69.11z"
   id="path11" />
</g>
<path
   style="fill:#464c4f;stroke-width:0.376271"
   d="m 64.332359,67.776716 c 0,0 0.0075,1.41478 0.01881,1.674408 0.01881,0.504203 0.297254,0.733729 0.84661,0.722441 0.549356,-0.01505 15.833497,0.161796 15.833497,0.161796 l 0.248339,-4.797459 z"
   id="path1-0" /><path
   style="fill:#464c4f;stroke-width:0.376271"
   d="m 90.897114,67.125767 0.959492,3.089187 c 0,0 15.449704,0 16.017874,0.0301 0.56817,0.0301 0.86919,-0.18061 0.89929,-0.718678 0.0301,-0.541831 0.0828,-2.716679 0.0828,-2.716679 L 98.034983,65.32719 Z"
   id="path2-9" /><path
   style="fill:#464c4f;stroke-width:0.376271"
   d="m 80.36528,83.606451 c 0,0 -0.01129,2.069493 -0.01505,2.490917 -0.0075,0.793932 0.195661,1.45617 1.787289,1.45617 1.591628,0 8.040918,-0.0301 8.699393,-0.0602 0.658475,-0.0301 1.181492,-0.387559 1.211594,-1.136339 0.0301,-0.74878 0.199423,-3.600917 -0.101594,-3.570815 -0.301017,0.0301 -6.991121,0.0301 -6.991121,0.0301 z"
   id="path3-3" /><path
   style="fill:#616266;stroke-width:0.376271"
   d="m 65.491275,58.964442 c -0.899289,0.03386 -1.140102,0.36122 -1.170204,1.350814 -0.0301,0.989594 0,6.509494 0,7.021223 0,0.511729 0.0301,1.260509 0.688576,1.29061 0.658475,0.0301 15.359396,0.0301 15.359396,0.0301 0,0 0,14.128989 0,14.937972 0,0.808984 0.598271,1.828679 2.220001,1.949086 1.621729,0.120407 6.328883,0.0602 7.438884,0.0602 1.11,0 2.009288,-0.421424 2.069492,-1.380916 0.0602,-0.959491 0.0602,-15.570108 0.0602,-15.570108 0,0 14.66706,-0.08654 15.3895,-0.09031 1.01969,-0.0038 1.29061,-0.568169 1.32071,-1.949085 0.0301,-1.380916 -0.0602,-5.670409 -0.0602,-6.419189 0,-0.74878 -0.48163,-1.200305 -1.62173,-1.140102 -1.1401,0.0602 -15.178785,-0.0602 -15.178785,-0.0602 0,0 0,-15.050853 0,-15.769531 0,-0.718678 -0.278441,-1.128814 -1.501323,-1.117526 -0.839085,0.0075 -8.259155,-0.01505 -8.891291,-0.0301 -0.797695,-0.01881 -1.162679,0.538068 -1.155153,1.437357 0.0075,0.869186 -0.0602,15.509903 -0.0602,15.509903 0,0 -14.098887,-0.09031 -14.90787,-0.0602 z"
   id="path4-6" /><path
   style="fill:#9a9a9a;stroke-width:0.376271"
   d="m 66.179851,60.676476 c -0.598271,0.658475 -0.718678,4.560409 0.361221,4.560409 1.207831,0 0.808983,-1.888882 2.460814,-2.521018 1.651831,-0.632136 2.423188,-0.959492 2.460815,-1.648068 0.05644,-1.113764 -4.620612,-1.121289 -5.28285,-0.391323 z"
   id="path5-0" /><path
   style="fill:#9a9a9a;stroke-width:0.376271"
   d="m 87.175791,44.075386 c 0.04891,0.793932 -1.994238,1.132577 -2.795696,1.90017 -0.805221,0.767593 -1.31695,1.994238 -1.918984,1.975424 -0.602034,-0.01881 -1.023458,-1.15139 -0.876712,-2.430712 0.146746,-1.279323 1.226645,-2.046916 2.833323,-2.156035 1.606679,-0.109119 2.720442,0.109119 2.758069,0.711153 z"
   id="path6-6" /></svg>
