<?xml version="1.0" encoding="UTF-8" standalone="no"?>
<!-- Generator: Adobe Illustrator 24.1.2, SVG Export Plug-In . SVG Version: 6.00 Build 0)  -->

<svg
   version="1.1"
   id="Layer_3"
   x="0px"
   y="0px"
   viewBox="0 0 128 128"
   style="enable-background:new 0 0 128 128;"
   xml:space="preserve"
   sodipodi:docname="explosion_yellow (Copy).svg"
   inkscape:version="1.4 (e7c3feb100, 2024-10-09)"
   xmlns:inkscape="http://www.inkscape.org/namespaces/inkscape"
   xmlns:sodipodi="http://sodipodi.sourceforge.net/DTD/sodipodi-0.dtd"
   xmlns="http://www.w3.org/2000/svg"
   xmlns:svg="http://www.w3.org/2000/svg"><defs
   id="defs2" /><sodipodi:namedview
   id="namedview2"
   pagecolor="#ffffff"
   bordercolor="#000000"
   borderopacity="0.25"
   inkscape:showpageshadow="2"
   inkscape:pageopacity="0.0"
   inkscape:pagecheckerboard="0"
   inkscape:deskcolor="#d1d1d1"
   inkscape:zoom="26"
   inkscape:cx="75.653846"
   inkscape:cy="63.576923"
   inkscape:window-width="2560"
   inkscape:window-height="1371"
   inkscape:window-x="0"
   inkscape:window-y="0"
   inkscape:window-maximized="1"
   inkscape:current-layer="Layer_3" />
<g
   id="g2">
	<polygon
   style="fill:#FFA000;stroke:#F44336;stroke-width:3;stroke-miterlimit:10;"
   points="68.27,8.51 84.11,41.67 119.44,9.79    101.38,55.43 121.05,50.12 102.4,76.63 119.43,82.5 102.03,90.77 118.96,119.8 86.77,99.89 79.87,121.43 69.65,98.4 40.65,120.18    49.47,95.33 9.5,103.37 39.42,81.1 7.89,58.4 43.85,61.51 10.6,10.52 64,45.51  "
   id="polygon1" />
	<radialGradient
   id="SVGID_1_"
   cx="77.5873"
   cy="75.7353"
   r="26.3653"
   gradientUnits="userSpaceOnUse">
		<stop
   offset="0"
   style="stop-color:#FFFDE7"
   id="stop1" />
		<stop
   offset="1"
   style="stop-color:#FFF176"
   id="stop2" />
	</radialGradient>
	<polygon
   style="fill:url(#SVGID_1_);stroke:#FFEB3B;stroke-width:2;stroke-miterlimit:10;"
   points="72.63,34.77 82.17,59.48    101.05,38.17 86.86,67.91 104.07,62.74 88.12,78.59 101.48,82.98 88.68,84.87 98.87,99.31 82.31,88.73 78.5,101.05 72.63,86.96    57.98,98.12 64,84.45 41,89.47 57.95,79.19 35.84,68.56 60.33,70.84 40.22,39.29 71.1,60.17  "
   id="polygon2" />
</g><path
   style="fill:#9f0000;fill-opacity:1;stroke-width:0.195418"
   d="m 62.727858,74.614528 c 0,0 0.0039,0.734771 0.0098,0.869609 0.0098,0.26186 0.15438,0.381065 0.43969,0.375203 0.28531,-0.0078 8.223179,0.08403 8.223179,0.08403 l 0.128976,-2.491576 z"
   id="path1" /><path
   style="fill:#464c4f;stroke-width:0.195418"
   d="m 76.524351,74.276456 0.498316,1.60438 c 0,0 8.023854,0 8.318934,0.01563 0.295081,0.01563 0.451416,-0.0938 0.467049,-0.373248 0.01563,-0.281402 0.04299,-1.410917 0.04299,-1.410917 l -5.620215,-0.769945 z"
   id="path2" /><path
   style="fill:#464c4f;stroke-width:0.195418"
   d="m 71.054608,82.835754 c 0,0 -0.0059,1.074798 -0.0078,1.293666 -0.0039,0.412331 0.101617,0.756266 0.928234,0.756266 0.826617,0 4.176078,-0.01563 4.518059,-0.03127 0.341981,-0.01563 0.613612,-0.20128 0.629245,-0.590162 0.01563,-0.388881 0.103572,-1.870148 -0.05276,-1.854514 -0.156334,0.01563 -3.630862,0.01563 -3.630862,0.01563 z"
   id="path3" /><path
   style="fill:#c70000;fill-opacity:1;stroke-width:0.195418"
   d="m 63.329744,70.037845 c -0.467048,0.01759 -0.592116,0.1876 -0.607749,0.701549 -0.01563,0.513949 0,3.380728 0,3.646496 0,0.265768 0.01563,0.654649 0.357614,0.670283 0.341982,0.01563 7.976953,0.01563 7.976953,0.01563 0,0 0,7.337938 0,7.758086 0,0.420148 0.310715,0.94973 1.152965,1.012264 0.842251,0.06253 3.286927,0.03127 3.863409,0.03127 0.576483,0 1.043531,-0.218868 1.074798,-0.717183 0.03127,-0.498315 0.03127,-8.086388 0.03127,-8.086388 0,0 7.617385,-0.04495 7.992587,-0.0469 0.529582,-0.002 0.670283,-0.295081 0.685916,-1.012264 0.01563,-0.717183 -0.03127,-2.944946 -0.03127,-3.333827 0,-0.388881 -0.250135,-0.623383 -0.842251,-0.592115 -0.592115,0.03127 -7.883153,-0.03127 -7.883153,-0.03127 0,0 0,-7.816711 0,-8.189959 0,-0.373248 -0.144609,-0.586253 -0.779717,-0.58039 -0.435781,0.0039 -4.28942,-0.0078 -4.617721,-0.01563 -0.414286,-0.0098 -0.603841,0.279447 -0.599933,0.746495 0.0039,0.451415 -0.03127,8.055121 -0.03127,8.055121 0,0 -7.322304,-0.0469 -7.742452,-0.03127 z"
   id="path4" /><path
   style="fill:#e1001f;fill-opacity:1;stroke-width:0.195418"
   d="m 63.687359,70.926995 c -0.310715,0.341982 -0.373248,2.368464 0.187601,2.368464 0.627291,0 0.420148,-0.980998 1.278032,-1.309299 0.857884,-0.328302 1.25849,-0.498316 1.278032,-0.85593 0.02931,-0.578437 -2.39973,-0.582345 -2.743665,-0.203235 z"
   id="path5" /><path
   style="fill:#e1001f;fill-opacity:1;stroke-width:0.195418"
   d="m 74.59167,62.305164 c 0.0254,0.412331 -1.035714,0.588207 -1.451954,0.986859 -0.418194,0.398653 -0.683962,1.035715 -0.996631,1.025944 -0.312668,-0.0098 -0.531536,-0.597979 -0.455323,-1.262399 0.07621,-0.66442 0.637062,-1.063073 1.471496,-1.119744 0.834434,-0.05667 1.41287,0.05667 1.432412,0.36934 z"
   id="path6" /><path
   style="fill:#9f0000;fill-opacity:1;stroke-width:0.0215634"
   d="m 71.569887,84.835865 c -0.163861,-0.03981 -0.304326,-0.11567 -0.37711,-0.203665 -0.117765,-0.142375 -0.128789,-0.223186 -0.128223,-0.939982 l 5.24e-4,-0.648377 0.05174,0.125822 c 0.10052,0.244473 0.251414,0.402392 0.508493,0.532165 0.330388,0.166779 0.527979,0.179552 2.80263,0.181184 1.741742,0.0012 1.898396,-0.0016 2.037735,-0.03707 0.31692,-0.08068 0.532216,-0.229899 0.628393,-0.43552 l 0.05043,-0.107816 -4.19e-4,0.150943 c -2.15e-4,0.08302 -0.0094,0.327659 -0.0204,0.543646 -0.02268,0.445519 -0.05441,0.55833 -0.190649,0.677951 -0.159959,0.140447 -0.222708,0.154445 -0.769261,0.171593 -0.880209,0.02762 -4.470428,0.01913 -4.593886,-0.01087 z"
   id="path7" /><path
   style="fill:#9f0000;fill-opacity:1;stroke-width:0.0215634"
   d="m 81.204203,75.880791 -4.016172,-0.0069 v -0.396227 -0.396228 l 2.495956,-0.01424 c 1.372775,-0.0078 3.219569,-0.02115 4.103983,-0.02959 l 1.608024,-0.01535 0.127106,-0.06502 c 0.142623,-0.07296 0.22936,-0.187701 0.279117,-0.369244 0.0258,-0.09412 0.02765,-0.06298 0.01819,0.304884 -0.01487,0.577734 -0.03564,0.778865 -0.08764,0.848631 -0.07326,0.0983 -0.158079,0.132895 -0.34269,0.139795 -0.09334,0.0035 -1.976977,0.0032 -4.185872,-5.24e-4 z"
   id="path8" />
</svg>
