<?xml version="1.0" encoding="UTF-8" standalone="no"?>
<!-- Generator: Adobe Illustrator 24.1.2, SVG Export Plug-In . SVG Version: 6.00 Build 0)  -->

<svg
   version="1.1"
   id="Layer_2"
   x="0px"
   y="0px"
   viewBox="0 0 128 128"
   style="enable-background:new 0 0 128 128;"
   xml:space="preserve"
   sodipodi:docname="emoji_u2764.svg"
   inkscape:version="1.4 (e7c3feb100, 2024-10-09)"
   xmlns:inkscape="http://www.inkscape.org/namespaces/inkscape"
   xmlns:sodipodi="http://sodipodi.sourceforge.net/DTD/sodipodi-0.dtd"
   xmlns="http://www.w3.org/2000/svg"
   xmlns:svg="http://www.w3.org/2000/svg"><defs
   id="defs7" /><sodipodi:namedview
   id="namedview7"
   pagecolor="#ffffff"
   bordercolor="#000000"
   borderopacity="0.25"
   inkscape:showpageshadow="2"
   inkscape:pageopacity="0.0"
   inkscape:pagecheckerboard="0"
   inkscape:deskcolor="#d1d1d1"
   inkscape:zoom="6.4081552"
   inkscape:cx="33.394946"
   inkscape:cy="69.442762"
   inkscape:window-width="2560"
   inkscape:window-height="1371"
   inkscape:window-x="0"
   inkscape:window-y="0"
   inkscape:window-maximized="1"
   inkscape:current-layer="Layer_2" />
<g
   id="g7">
	<path
   style="fill:#F44336;"
   d="M93.99,8.97c-21.91,0-29.96,22.39-29.96,22.39S56.09,8.97,34.03,8.97   c-16.58,0-35.48,13.14-28.5,43.01c6.98,29.87,58.56,67.08,58.56,67.08s51.39-37.21,58.38-67.08   C129.45,22.11,111.91,8.97,93.99,8.97z"
   id="path1" />
	<g
   id="g3">
		<path
   style="fill:#CC3333;"
   d="M30.65,11.2c17.2,0,25.74,18.49,28.5,25.98c0.39,1.07,1.88,1.1,2.33,0.06L64,31.35    C60.45,20.01,50.69,8.97,34.03,8.97c-6.9,0-14.19,2.28-19.86,7.09C19.18,12.77,25.05,11.2,30.65,11.2z"
   id="path2" />
		<path
   style="fill:#CC3333;"
   d="M93.99,8.97c-5.29,0-10.11,1.15-13.87,3.47c2.64-1.02,5.91-1.24,9.15-1.24    c16.21,0,30.72,12.29,24.17,40.7c-5.62,24.39-38.46,53.98-48.49,65.27c-0.64,0.72-0.86,1.88-0.86,1.88s51.39-37.21,58.38-67.08    C129.45,22.11,111.94,8.97,93.99,8.97z"
   id="path3" />
	</g>
	<g
   id="g6">
		<g
   id="g5">
			<g
   id="g4">
				<path
   style="fill:#FF8A80;"
   d="M17.04,24.82c3.75-4.68,10.45-8.55,16.13-4.09c3.07,2.41,1.73,7.35-1.02,9.43      c-4,3.04-7.48,4.87-9.92,9.63c-1.46,2.86-2.34,5.99-2.79,9.18c-0.18,1.26-1.83,1.57-2.45,0.46      C12.77,41.95,11.57,31.65,17.04,24.82z"
   id="path4" />
			</g>
		</g>
	</g>
	<path
   style="fill:#FF8A80;"
   d="M77.16,34.66c-1.76,0-3-1.7-2.36-3.34c1.19-3.02,2.73-5.94,4.58-8.54   c2.74-3.84,7.95-6.08,11.25-3.75c3.38,2.38,2.94,7.14,0.57,9.44C86.11,33.4,79.69,34.66,77.16,34.66z"
   id="path6" />
</g><path
   style="fill:#b6bcbe;fill-opacity:1;stroke-width:0.393898"
   d="m 40.887896,73.172773 c 0,0 0.0079,1.481059 0.01969,1.75285 0.01969,0.527824 0.31118,0.768103 0.886272,0.756286 0.575092,-0.01576 16.575258,0.169376 16.575258,0.169376 l 0.259973,-5.022209 z"
   id="path1-6" /><path
   style="fill:#b6bcbe;fill-opacity:1;stroke-width:0.393898"
   d="m 68.697146,72.491329 1.004442,3.233908 c 0,0 16.173483,0 16.76827,0.03152 0.594787,0.03151 0.909906,-0.189072 0.941418,-0.752346 0.03151,-0.567215 0.08666,-2.843949 0.08666,-2.843949 L 76.169405,70.608493 Z"
   id="path2-7" /><path
   style="fill:#b6bcbe;fill-opacity:1;stroke-width:0.393898"
   d="m 57.67192,89.744094 c 0,0 -0.01181,2.16644 -0.01576,2.60761 -0.0079,0.83112 0.204827,1.52438 1.871018,1.52438 1.666192,0 8.417616,-0.0316 9.106939,-0.063 0.689323,-0.0316 1.236842,-0.40572 1.268353,-1.18957 0.03152,-0.78386 0.208768,-3.76962 -0.106354,-3.7381 -0.315119,0.0316 -7.318639,0.0316 -7.318639,0.0316 z"
   id="path3-5" /><path
   style="fill:#cccccc;fill-opacity:1;stroke-width:0.393898"
   d="m 42.101104,63.947665 c -0.941418,0.03545 -1.193513,0.378143 -1.225026,1.414097 -0.03152,1.035953 0,6.814447 0,7.35015 0,0.535703 0.03152,1.319561 0.720836,1.351073 0.689322,0.03151 16.078946,0.03151 16.078946,0.03151 0,0 0,14.790889 0,15.637779 0,0.84688 0.626298,1.91435 2.324002,2.04039 1.697703,0.12605 6.625377,0.063 7.787378,0.063 1.162001,0 2.103419,-0.44117 2.166443,-1.44561 0.06302,-1.00445 0.06302,-16.299529 0.06302,-16.299529 0,0 15.354175,-0.0906 16.110461,-0.09454 1.067465,-0.0039 1.351072,-0.594787 1.382583,-2.040394 0.03151,-1.445609 -0.06302,-5.936054 -0.06302,-6.719913 0,-0.783858 -0.504191,-1.256537 -1.697703,-1.193513 -1.193513,0.06302 -15.889877,-0.06302 -15.889877,-0.06302 0,0 0,-15.75595 0,-16.508296 0,-0.752346 -0.291484,-1.181696 -1.571656,-1.169879 -0.878394,0.0079 -8.646077,-0.01576 -9.307827,-0.03152 -0.835065,-0.01969 -1.217147,0.563276 -1.209268,1.504694 0.0079,0.909905 -0.06302,16.236505 -0.06302,16.236505 0,0 -14.759386,-0.09454 -15.606268,-0.06302 z"
   id="path4-3" /><g
   id="g2"
   transform="translate(0.70822697,-21.961766)"><path
     style="fill:#d8d8d8;fill-opacity:1;stroke-width:0.393898"
     d="m 42.113712,87.70167 c -0.626299,0.689324 -0.752347,4.774053 0.378143,4.774053 1.264414,0 0.846881,-1.977371 2.576097,-2.639122 1.729215,-0.661749 2.536708,-1.004442 2.576098,-1.725276 0.05908,-1.16594 -4.837077,-1.173818 -5.530338,-0.409655 z"
     id="path5" /></g><path
   style="fill:#d8d8d8;fill-opacity:1;stroke-width:0.393898"
   d="m 64.801487,48.361093 c 0.05121,0.831126 -2.087663,1.185634 -2.926668,1.989187 -0.842943,0.803555 -1.378645,2.087665 -2.008882,2.067969 -0.630239,-0.01969 -1.071406,-1.20533 -0.917785,-2.544586 0.15362,-1.339256 1.28411,-2.142809 2.966058,-2.257039 1.681947,-0.114231 2.847888,0.11423 2.887277,0.744469 z"
   id="path6-6" />
</svg>
